<svg id="visual" viewBox="0 0 960 540" width="960" height="540" xmlns="http://www.w3.org/2000/svg" xmlns:xlink="http://www.w3.org/1999/xlink" version="1.1"><rect x="0" y="0" width="960" height="540" fill="#F7770F"></rect><path d="M0 426L17.8 430C35.7 434 71.3 442 106.8 445.5C142.3 449 177.7 448 213.2 430.3C248.7 412.7 284.3 378.3 320 370C355.7 361.7 391.3 379.3 426.8 382C462.3 384.7 497.7 372.3 533.2 379.2C568.7 386 604.3 412 640 418.7C675.7 425.3 711.3 412.7 746.8 412.3C782.3 412 817.7 424 853.2 423.8C888.7 423.7 924.3 411.3 942.2 405.2L960 399L960 541L942.2 541C924.3 541 888.7 541 853.2 541C817.7 541 782.3 541 746.8 541C711.3 541 675.7 541 640 541C604.3 541 568.7 541 533.2 541C497.7 541 462.3 541 426.8 541C391.3 541 355.7 541 320 541C284.3 541 248.7 541 213.2 541C177.7 541 142.3 541 106.8 541C71.3 541 35.7 541 17.8 541L0 541Z" fill="#001122" stroke-linecap="round" stroke-linejoin="miter"></path></svg>